<svg xmlns="http://www.w3.org/2000/svg" width="192.934" height="48" viewBox="0 0 192.934 48">
    <defs>
        <style>
            .cls-1{fill:#4863e1}
        </style>
    </defs>
    <g id="Group_66" transform="translate(3244 -204)">
        <g id="Group_65" transform="translate(-3244 204)">
            <path id="Path_53" d="M21.42 0h13.21a1.477 1.477 0 0 1 1.477 1.477V21.42a1.477 1.477 0 0 1-1.477 1.48H1.477A1.477 1.477 0 0 1 0 21.42 21.42 21.42 0 0 1 21.42 0z" class="cls-1" transform="translate(8.807)"/>
            <path id="Path_54" d="M1.477 0H34.63a1.477 1.477 0 0 1 1.477 1.477A21.42 21.42 0 0 1 14.687 22.9H1.477A1.477 1.477 0 0 1 0 21.42V1.477A1.477 1.477 0 0 1 1.477 0z" class="cls-1" transform="translate(0 25.102)"/>
        </g>
        <path id="Path_45" d="M9.9-24.935q0 1.08 1.447 1.755a19.445 19.445 0 0 0 3.522 1.188 36.7 36.7 0 0 1 4.151 1.3 8.047 8.047 0 0 1 3.52 2.618 7.184 7.184 0 0 1 1.447 4.589 7.387 7.387 0 0 1-3.14 6.4 13.149 13.149 0 0 1-7.836 2.24q-8.409 0-11.466-6.425l6.115-3.4q1.2 3.509 5.351 3.509 3.767 0 3.767-2.322 0-1.08-1.447-1.755a20.809 20.809 0 0 0-3.522-1.215 37.118 37.118 0 0 1-4.151-1.35 8.514 8.514 0 0 1-3.52-2.566 6.685 6.685 0 0 1-1.447-4.4 7.509 7.509 0 0 1 2.976-6.29 11.756 11.756 0 0 1 7.4-2.295 12.478 12.478 0 0 1 6.06 1.485 10.914 10.914 0 0 1 4.315 4.238L17.439-24.4a4.5 4.5 0 0 0-4.368-2.753 4.035 4.035 0 0 0-2.266.594 1.847 1.847 0 0 0-.905 1.624zm33.416-.972H37.15v11.23a2.655 2.655 0 0 0 .71 2.052 3.276 3.276 0 0 0 2.076.729 30.919 30.919 0 0 0 3.385-.027v6.316q-7.262.81-10.238-1.35t-2.976-7.719v-11.231h-4.75V-32.6h4.749v-5.452l7.044-2.106v7.558h6.17zm24.9-6.695h7.044v26.995h-7.041v-3.186a10.77 10.77 0 0 1-8.9 3.941 12.434 12.434 0 0 1-9.364-4.13 14.181 14.181 0 0 1-3.9-10.123 14.186 14.186 0 0 1 3.9-10.123 12.431 12.431 0 0 1 9.364-4.13 10.77 10.77 0 0 1 8.9 3.941zm-13 19a7.368 7.368 0 0 0 5.406 2.106 7.41 7.41 0 0 0 5.433-2.134 7.374 7.374 0 0 0 2.157-5.48 7.374 7.374 0 0 0-2.157-5.48 7.41 7.41 0 0 0-5.433-2.133 7.318 7.318 0 0 0-5.406 2.133 7.424 7.424 0 0 0-2.129 5.48 7.516 7.516 0 0 0 2.136 5.51zm39.43 8.751a14 14 0 0 1-10.292-4.1A13.755 13.755 0 0 1 80.231-19.1a13.754 13.754 0 0 1 4.122-10.15 14 14 0 0 1 10.292-4.1 14.273 14.273 0 0 1 7.261 1.891 12.63 12.63 0 0 1 4.97 5.075l-6.061 3.509a6.138 6.138 0 0 0-2.485-2.645 7.282 7.282 0 0 0-3.74-.972 7.1 7.1 0 0 0-5.242 2.079 7.207 7.207 0 0 0-2.074 5.313 7.139 7.139 0 0 0 2.076 5.264 7.1 7.1 0 0 0 5.242 2.079 7.555 7.555 0 0 0 3.795-.945 5.978 5.978 0 0 0 2.485-2.618l6.115 3.455a13.6 13.6 0 0 1-5.079 5.1 14.117 14.117 0 0 1-7.261 1.917zm41.224-.756h-8.189l-9.937-12.256v12.256H110.7V-43.4h7.044v22.676l9.39-11.876h8.409l-10.975 13.333z" class="cls-1" transform="translate(-3186.937 250.923)"/>
    </g>
</svg>
